<svg version="1.1" xmlns="http://www.w3.org/2000/svg" xmlns:xlink="http://www.w3.org/1999/xlink" width="248.23695" height="248.23695" viewBox="0,0,248.23695,248.23695"><g transform="translate(-115.88153,-55.88153)"><g data-paper-data="{&quot;isPaintingLayer&quot;:true}" stroke-linecap="butt" stroke-miterlimit="10" stroke-dasharray="" stroke-dashoffset="0" style="mix-blend-mode: normal"><path d="M115.88153,180c0,-68.54874 55.56973,-124.11847 124.11848,-124.11847c68.54874,0 124.11847,55.56974 124.11847,124.11848c0,68.54874 -55.56973,124.11847 -124.11847,124.11847c-68.54874,0 -124.11847,-55.56973 -124.11847,-124.11847z" fill="#8daeb8" fill-rule="nonzero" stroke="none" stroke-width="0" stroke-linejoin="miter"/><path d="M146.70501,180.13738c0,-50.84243 41.21592,-92.05835 92.05835,-92.05835c50.84243,0 92.05835,41.21592 92.05835,92.05835c0,50.84243 -41.21592,92.05835 -92.05835,92.05835c-50.84243,0 -92.05835,-41.21592 -92.05835,-92.05835z" fill="#4e7682" fill-rule="nonzero" stroke="none" stroke-width="0" stroke-linejoin="miter"/><path d="M187.1008,180c0,-29.21542 23.68377,-52.8992 52.89921,-52.8992c29.21543,0 52.8992,23.68377 52.8992,52.8992c0,29.21543 -23.68377,52.89921 -52.8992,52.89921c-29.21542,0 -52.89921,-23.68377 -52.89921,-52.89921z" fill="#20444f" fill-rule="nonzero" stroke="none" stroke-width="0" stroke-linejoin="miter"/><path d="M277.81684,185.87243l-3.00328,3.13654h-16.34403c0.05165,-0.80604 0.10327,-1.61221 0.15488,-2.41839c6.40288,-0.70407 12.80333,-1.42923 19.19243,-2.19107z" fill="#000000" fill-rule="nonzero" stroke="#000000" stroke-width="0" stroke-linejoin="miter"/><path d="M324.56391,162.20819l-20.36545,0.55514v50.66809h12.78935c5.04956,0 7.57611,-2.59594 7.57611,-7.78428zM250.54298,161.65128v20.36367h19.87793v-20.36367zM249.36155,153.93639h22.24079c5.19011,0 7.78428,2.61907 7.78428,7.85367v24.32609l-3.12794,3.26673h-25.7157v24.46487h19.87793v-12.37121h8.96571v12.23244c0,5.23638 -2.59417,7.85367 -7.78428,7.85367h-22.24079c-5.19011,0 -7.78428,-2.6173 -7.78428,-7.85367v-51.9189c0,-5.23459 2.59417,-7.85367 7.78428,-7.85367zM326.09229,153.52004c5.14385,0 7.71489,2.52477 7.71489,7.57611v45.94059c0,4.17059 -1.36648,7.63304 -4.1012,10.3909c-2.73295,2.75608 -6.16159,4.13502 -10.28592,4.13502h-15.2216v25.64631h-9.24327v-93.27255h9.24327v1.87712c3.66173,-0.46261 7.32168,-0.927 10.98161,-1.38961c4.6332,-0.60318 8.2718,-0.90386 10.91222,-0.90386zM209.39751,132.87703h9.10449v21.05936h11.81609v8.13301h-11.81609v51.362h11.81609v8.13123h-13.1363c-5.18833,0 -7.78428,-2.6173 -7.78428,-7.85367v-51.63957h-8.13123v-8.13301h8.13123zM153.97701,112.79093h27.38286c2.27034,0 4.11366,0.71882 5.52639,2.15469c1.41273,1.43587 2.11911,3.28986 2.11911,5.5602v25.29934h-9.65962v-24.46487h-23.4934v22.93649l30.16564,36.27918c1.991,2.40912 2.98738,5.12073 2.98738,8.13123v25.16056c0,2.27034 -0.70637,4.12433 -2.11911,5.5602c-1.41273,1.43587 -3.25605,2.15469 -5.52639,2.15469h-27.38286c-2.27034,0 -4.13502,-0.71882 -5.59578,-2.15469c-1.459,-1.43587 -2.18849,-3.28986 -2.18849,-5.5602v-27.59281h9.65962v26.75834h23.4934v-25.92387l-30.02508,-36.28096c-2.0853,-2.50164 -3.12794,-5.25772 -3.12794,-8.27001v-22.03262c0,-2.27034 0.7295,-4.12433 2.18849,-5.5602c1.46078,-1.43587 3.32544,-2.15469 5.59578,-2.15469z" fill="#3e8297" fill-rule="evenodd" stroke="#ffffff" stroke-width="10" stroke-linejoin="round"/><g fill="#3e8297" stroke="#000000" stroke-width="0"><path d="M324.56391,162.2082l-20.36545,0.55514v50.66809h12.78935c5.04956,0 7.57611,-2.59594 7.57611,-7.78428zM250.54298,161.65128v20.36367h19.87793v-20.36367zM249.36155,153.9364h22.24079c5.19011,0 7.78428,2.61907 7.78428,7.85367v24.32609l-3.12794,3.26673h-25.7157v24.46487h19.87793v-12.37121h8.96571v12.23244c0,5.23638 -2.59417,7.85367 -7.78428,7.85367h-22.24079c-5.19011,0 -7.78428,-2.6173 -7.78428,-7.85367v-51.9189c0,-5.23459 2.59417,-7.85367 7.78428,-7.85367zM326.09229,153.52005c5.14385,0 7.71489,2.52477 7.71489,7.57611v45.94059c0,4.17059 -1.36648,7.63304 -4.1012,10.3909c-2.73295,2.75608 -6.16159,4.13502 -10.28592,4.13502h-15.2216v25.64631h-9.24327v-93.27255h9.24327v1.87712c3.66173,-0.46261 7.32168,-0.927 10.98161,-1.38961c4.6332,-0.60318 8.2718,-0.90386 10.91222,-0.90386zM209.39751,132.87703h9.10449v21.05936h11.81609v8.13301h-11.81609v51.362h11.81609v8.13123h-13.1363c-5.18833,0 -7.78428,-2.6173 -7.78428,-7.85367v-51.63957h-8.13123v-8.13301h8.13123zM153.97701,112.79093h27.38286c2.27034,0 4.11366,0.71882 5.52639,2.15469c1.41273,1.43587 2.11911,3.28986 2.11911,5.5602v25.29934h-9.65962v-24.46487h-23.4934v22.93649l30.16564,36.27918c1.991,2.40912 2.98738,5.12073 2.98738,8.13123v25.16056c0,2.27034 -0.70637,4.12433 -2.11911,5.5602c-1.41273,1.43587 -3.25605,2.15469 -5.52639,2.15469h-27.38286c-2.27034,0 -4.13502,-0.71882 -5.59578,-2.15469c-1.459,-1.43587 -2.18849,-3.28986 -2.18849,-5.5602v-27.59281h9.65962v26.75834h23.4934v-25.92387l-30.02508,-36.28096c-2.0853,-2.50164 -3.12794,-5.25772 -3.12794,-8.27001v-22.03262c0,-2.27034 0.7295,-4.12433 2.18849,-5.5602c1.46078,-1.43587 3.32544,-2.15469 5.59578,-2.15469z" fill-rule="evenodd" stroke-linejoin="round"/><path d="M153.97701,112.79093h27.38286c2.27034,0 4.11366,0.71882 5.52639,2.15469c1.41273,1.43587 2.11911,3.28986 2.11911,5.5602v25.29934h-9.65962v-24.46487h-23.4934v22.93649l23.70696,28.51155c-4.02307,-0.00857 -8.04614,-0.01682 -12.06922,-0.02477l-18.16941,-21.95511c-2.0853,-2.50164 -3.12794,-5.25772 -3.12794,-8.27001v-22.03262c0,-2.27034 0.7295,-4.12433 2.18849,-5.5602c1.46078,-1.43587 3.32544,-2.15469 5.59578,-2.15469z" fill-rule="nonzero" stroke-linejoin="miter"/><path d="M279.38662,186.11615l-3.12794,3.26673h-25.7157v24.46487h19.87793v-12.37121h8.96571v12.23244c0,5.23638 -2.59417,7.85367 -7.78428,7.85367h-22.24079c-5.19011,0 -7.78428,-2.6173 -7.78428,-7.85367v-30.00543c12.60313,-0.01427 25.20625,-0.02217 37.80934,-0.01572z" fill-rule="nonzero" stroke-linejoin="miter"/><path d="M324.56391,162.2082l-20.36545,0.55514v10.41029c-3.08108,-0.01295 -6.16218,-0.02562 -9.24327,-0.038v-19.19922h9.24327v1.87712c3.66173,-0.46261 7.32168,-0.927 10.98161,-1.38961c4.6332,-0.60318 8.2718,-0.90386 10.91222,-0.90386l0.00001,-0.00001c5.14385,0 7.71489,2.52477 7.71489,7.57611v12.21108c-3.08108,-0.01488 -6.16218,-0.02944 -9.24327,-0.0437z" fill-rule="nonzero" stroke-linejoin="miter"/></g><g fill="#000000" fill-rule="nonzero" stroke="#000000" stroke-width="0" stroke-linejoin="miter"><path d="M304.19846,213.43142h12.78935c5.04956,0 7.57611,-2.59594 7.57611,-7.78428v-21.86096c1.51313,0.00627 3.02626,0.01288 4.53939,0.01986c1.56325,0.00721 3.13132,0.01525 4.70389,0.02409v23.20661c0,4.17059 -1.36648,7.63304 -4.1012,10.3909c-2.73295,2.75608 -6.16159,4.13502 -10.28592,4.13502h-15.2216v25.64631h-9.24327v-63.50528c3.0811,0.0048 6.16218,0.01067 9.24327,0.01771z"/><path d="M189.00537,188.6872v25.16056c0,2.27034 -0.70637,4.12433 -2.11911,5.5602c-1.41273,1.43587 -3.25605,2.15469 -5.52639,2.15469h-27.38286c-2.27034,0 -4.13502,-0.71882 -5.59578,-2.15469c-1.459,-1.43587 -2.18849,-3.28986 -2.18849,-5.5602v-27.59281h9.65962v26.75834h23.4934v-25.92387l-2.72799,-3.29639c3.79825,-0.00379 7.59652,-0.00826 11.39477,-0.01316c0.66178,1.53601 0.99284,3.17201 0.99284,4.90733z"/><path d="M209.39751,132.87703h9.10449v21.05936h11.81609v8.13301h-11.81609v10.81228c-3.03483,-0.00814 -6.06966,-0.01605 -9.10449,-0.02379v-10.78848h-8.13123v-8.13301h8.13123z"/><path d="M250.54298,161.65128v11.32447c-2.98857,-0.00957 -5.97714,-0.0189 -8.9657,-0.02802v-11.15767c0,-5.23459 2.59417,-7.85367 7.78428,-7.85367h22.24079c5.19011,0 7.78428,2.61907 7.78428,7.85367v11.28534c-2.98857,-0.01112 -5.97715,-0.02197 -8.96571,-0.0326v-11.39154z"/><path d="M218.50201,213.43142h11.81609v8.13123h-13.1363c-5.18833,0 -7.78428,-2.6173 -7.78428,-7.85367v-29.96008c3.03483,-0.00466 6.06966,-0.00934 9.10449,-0.01393z"/></g></g></g></svg>