<svg version="1.1" xmlns="http://www.w3.org/2000/svg" xmlns:xlink="http://www.w3.org/1999/xlink" width="210.5" height="210.5" viewBox="0,0,210.5,210.5"><defs><radialGradient cx="240" cy="180" r="105.25" gradientUnits="userSpaceOnUse" id="color-1"><stop offset="0" stop-color="#e2ff00"/><stop offset="1" stop-color="#e2ff00" stop-opacity="0"/></radialGradient><radialGradient cx="240" cy="180" r="42.95208" gradientUnits="userSpaceOnUse" id="color-2"><stop offset="0" stop-color="#e2ff00"/><stop offset="1" stop-color="#e2ff00" stop-opacity="0"/></radialGradient><linearGradient x1="239.99995" y1="117.65965" x2="239.99995" y2="242.34042" gradientUnits="userSpaceOnUse" id="color-3"><stop offset="0" stop-color="#00ffff"/><stop offset="1" stop-color="#008eff"/></linearGradient></defs><g transform="translate(-134.75,-74.75)"><g data-paper-data="{&quot;isPaintingLayer&quot;:true}" stroke-miterlimit="10" stroke-dasharray="" stroke-dashoffset="0" style="mix-blend-mode: normal"><path d="M134.75,180c0,-58.12797 47.12203,-105.25 105.25,-105.25c58.12797,0 105.25,47.12203 105.25,105.25c0,58.12797 -47.12203,105.25 -105.25,105.25c-58.12797,0 -105.25,-47.12203 -105.25,-105.25z" fill="url(#color-1)" fill-rule="nonzero" stroke="none" stroke-width="0" stroke-linecap="butt" stroke-linejoin="miter"/><path d="M171.925,180c0,-37.59679 30.47821,-68.075 68.075,-68.075c37.59679,0 68.075,30.47821 68.075,68.075c0,37.59679 -30.47821,68.075 -68.075,68.075c-37.59679,0 -68.075,-30.47821 -68.075,-68.075z" fill="#ffffff" fill-rule="nonzero" stroke="#000000" stroke-width="2" stroke-linecap="butt" stroke-linejoin="miter"/><path d="M197.04792,180c0,-23.72178 19.2303,-42.95208 42.95208,-42.95208c23.72178,0 42.95208,19.2303 42.95208,42.95208c0,23.72178 -19.2303,42.95208 -42.95208,42.95208c-23.72178,0 -42.95208,-19.2303 -42.95208,-42.95208z" fill="url(#color-2)" fill-rule="nonzero" stroke="none" stroke-width="0" stroke-linecap="butt" stroke-linejoin="miter"/><g fill="none" fill-rule="nonzero" stroke="#000000" stroke-width="3.5" stroke-linecap="round" stroke-linejoin="miter"><path d="M255.32041,220.45198h18.31293v-13.24765h-63.90044v-25.71602h23.76785"/><path d="M226.09765,194.73596h-16.75438"/><path d="M255.71005,244.99912v-37.79478"/></g><g fill="none" fill-rule="nonzero" stroke="#000000" stroke-width="3.5" stroke-linecap="round" stroke-linejoin="miter"><path d="M210.12253,155.38264h22.59894v-17.14402h-23.76785v-16.75438h23.76785"/><path d="M231.9422,155.38264h45.5875"/><path d="M260.38569,155.38264v27.66421"/></g><path d="M278.08959,155.31606h25.93333" fill="none" fill-rule="nonzero" stroke="#000000" stroke-width="2" stroke-linecap="round" stroke-linejoin="miter"/><path d="M217.0382,155.31606h-38.9" fill="none" fill-rule="nonzero" stroke="#000000" stroke-width="2" stroke-linecap="round" stroke-linejoin="miter"/><path d="M208.93403,207.18273h-29.175" fill="none" fill-rule="nonzero" stroke="#000000" stroke-width="2" stroke-linecap="round" stroke-linejoin="miter"/><path d="M273.76736,206.64245h27.55417" fill="none" fill-rule="nonzero" stroke="#000000" stroke-width="2" stroke-linecap="round" stroke-linejoin="miter"/><path d="M318.99575,157.1798c-1.41049,0.00468 -2.89116,0.52525 -4.44196,1.55856c-1.55078,1.03489 -2.93793,2.55297 -4.16141,4.55416l-7.3565,34.92302c0.23691,0.72004 0.73096,1.36998 1.48065,1.94978c0.75124,0.5798 1.83756,0.88527 3.25742,0.91957c4.33753,-0.1964 7.7851,-2.22876 10.34428,-6.09246c2.55918,-3.86528 4.39206,-8.38203 5.49555,-13.55027c1.10503,-5.16824 1.64429,-9.80346 1.61623,-13.91029c-0.11845,-4.6321 -0.87748,-7.55911 -2.27552,-8.77791c-1.39649,-1.2188 -2.71659,-1.74249 -3.9588,-1.57416zM271.80047,154.31201c-2.14305,0.08884 -4.19413,1.39494 -6.15638,3.91827c-1.96225,2.52333 -3.70942,5.73402 -5.2415,9.63045c-1.5321,3.89643 -2.72438,7.94718 -3.57692,12.15222c4.95782,-0.48316 9.17378,-2.69789 12.6494,-6.6442c3.47717,-3.94476 5.29137,-8.59243 5.4441,-13.94146c0.0187,-1.57729 -0.20418,-2.81947 -0.67019,-3.72655c-0.46601,-0.9071 -1.28114,-1.36998 -2.44854,-1.38868zM236.68731,129.141l-4.23933,19.70042h7.48117l-0.99749,4.97186h-7.48117l-7.97992,37.41831c-0.18393,0.80579 -0.31327,1.53365 -0.38966,2.18356c-0.07481,0.64838 -0.11064,1.25155 -0.10909,1.80794c-0.00468,1.72066 0.41147,2.92546 1.24686,3.61746c0.83695,0.69045 2.1259,1.024 3.86528,0.99749c2.47813,-0.06703 4.72249,-1.1175 6.73306,-3.14988l2.42828,-3.21377l-0.10599,-1.37623c-0.02338,-3.70161 0.53148,-8.02822 1.66455,-12.97983c1.13465,-4.95161 2.99404,-9.8128 5.57969,-14.58361c2.58569,-4.77081 6.04414,-8.73582 10.37388,-11.89661c4.32974,-3.15924 9.67722,-4.79885 16.044,-4.91888c5.42227,0.10909 9.09274,1.32166 11.00979,3.64084c1.91861,2.31759 2.81635,5.09032 2.69321,8.31656c-0.07637,4.82534 -1.44479,9.15974 -4.10683,13.00321c-2.66206,3.84345 -6.15483,6.93877 -10.47986,9.28443c-4.32506,2.34566 -9.02258,3.68448 -14.09109,4.01799c-0.0639,0.87903 -0.12156,1.74249 -0.17144,2.59035c-0.04832,0.84786 -0.07481,1.64742 -0.07792,2.40177c0,4.15049 0.74969,6.95905 2.24591,8.42565c1.4978,1.46662 3.74372,2.15239 6.73929,2.05887c4.84251,-0.08105 8.97428,-1.29206 12.39224,-3.63459c3.41951,-2.34253 6.64267,-5.33344 9.66941,-8.97118h0.45824l9.46991,-44.62516h17.9548l-1.99498,9.34209c1.80015,-1.5835 3.90422,-2.86467 6.31224,-3.84345c2.408,-0.97723 5.16668,-1.48065 8.27449,-1.50871c4.33908,-0.10599 7.9316,1.3201 10.77601,4.28142c2.84441,2.96131 4.31882,8.0968 4.4217,15.40809c0.0296,4.30635 -0.43328,8.96647 -1.38868,13.98044c-0.95697,5.0124 -2.58099,9.79255 -4.87211,14.33889c-2.29112,4.54637 -5.42698,8.27294 -9.40446,11.18123c-3.97906,2.90831 -8.97586,4.41079 -14.99195,4.50896c-3.08287,-0.03898 -5.45657,-0.48939 -7.1227,-1.3544c-1.66455,-0.86346 -2.82258,-1.90614 -3.47562,-3.12807l-6.48368,30.41719l-18.82762,4.4887l9.75669,-45.97022l-2.98157,3.56601c-3.22003,3.48809 -6.96684,6.34029 -11.24202,8.55347c-4.27518,2.21318 -9.17066,3.35561 -14.68647,3.4273c-5.9335,0.05456 -10.63728,-1.48688 -14.10979,-4.62431c-1.73783,-1.56948 -3.04857,-3.62057 -3.93695,-6.15326l-0.04364,-0.18235l-0.06703,0.10443c-0.75124,1.03958 -1.52739,1.97629 -2.32697,2.80698c-3.1982,3.32446 -6.37457,5.51892 -9.5307,6.58656c-3.15611,1.06607 -5.8883,1.55391 -8.19811,1.46194c-3.8263,0.03117 -6.98243,-1.15177 -9.46836,-3.54888c-2.48594,-2.39864 -3.77332,-6.1969 -3.86216,-11.39943c0.00313,-1.18607 0.09196,-2.45943 0.26497,-3.81851c0.17456,-1.35908 0.41769,-2.7883 0.73251,-4.28763l7.47493,-35.04927h-4.11153l0.99593,-4.97186h4.11153l3.73747,-17.20669zM182.08412,117.66988c2.09473,-0.06858 4.69755,0.20729 7.80849,0.83073c3.11247,0.62187 5.89764,2.00589 8.35865,4.15205c2.45943,2.1446 3.75928,5.46749 3.89801,9.96709v0.00468c-0.03585,3.68604 -0.95851,6.68786 -2.7696,9.00233c-1.81107,2.31606 -4.29076,3.50992 -7.43908,3.58318c-1.12062,0.00779 -2.15396,-0.19482 -3.10313,-0.60627c-0.94917,-0.41303 -1.82822,-1.08166 -2.63555,-2.00589c1.70664,-1.06294 3.06415,-2.58569 4.07102,-4.5682c1.00528,-1.98251 1.51961,-4.03517 1.54299,-6.15794c0.04519,-2.2584 -0.63591,-4.19724 -2.0433,-5.81506c-1.40583,-1.61936 -3.80292,-2.46722 -7.1897,-2.54205c-3.4803,0.00468 -6.25301,0.96163 -8.31345,2.86935c-2.062,1.90614 -3.11715,4.7334 -3.16703,8.48021c0.1465,4.47936 1.60844,8.28228 4.38427,11.41035c2.77739,3.12807 5.99116,6.21094 9.64447,9.24549c3.65329,3.0361 6.86866,6.65512 9.64447,10.85548c2.77583,4.20192 4.23622,9.61641 4.38114,16.24193c-0.09662,6.98397 -1.78456,12.78343 -5.06225,17.39683c-3.27769,4.61495 -7.56066,8.06408 -12.84891,10.3505c-5.28669,2.28487 -10.99419,3.42577 -17.12251,3.42264c-4.80041,0.01713 -9.18938,-0.70915 -13.16686,-2.17733c-3.97748,-1.46818 -7.16476,-3.78266 -9.56187,-6.94033c-2.39864,-3.15924 -3.62837,-7.26609 -3.69227,-12.32053c0.06545,-4.49336 1.00217,-8.25577 2.81011,-11.28721c1.8095,-3.02989 4.10374,-5.31318 6.88266,-6.84838c2.77896,-1.53365 5.65765,-2.30202 8.63296,-2.30514c2.34098,-0.06232 4.66638,0.49718 6.97463,1.68015c2.3098,1.18297 3.63772,3.36027 3.98527,6.53356c-3.54888,-0.04988 -6.82189,0.82916 -9.81591,2.63555c-2.99404,1.80641 -4.58377,4.83783 -4.77236,9.09274c0.00155,3.22782 1.00062,6.0052 2.99714,8.32905c1.9981,2.32385 4.99054,3.53954 8.97586,3.64863c4.26116,-0.03585 7.71808,-1.49156 10.37233,-4.36712c2.65583,-2.87401 4.02425,-6.94969 4.10374,-12.22704c-0.13248,-5.26486 -1.46352,-9.86423 -3.99306,-13.79807c-2.52958,-3.93229 -5.45813,-7.58249 -8.78725,-10.94745c-3.32755,-3.36653 -6.25613,-6.82968 -8.7857,-10.38948c-2.52958,-3.56135 -3.86058,-7.60118 -3.99463,-12.1195c0.19482,-6.60524 2.98312,-11.94493 8.36333,-16.01906c5.38176,-4.0741 12.19276,-6.17196 20.43293,-6.29041z" fill="url(#color-3)" fill-rule="evenodd" stroke="#000000" stroke-width="2" stroke-linecap="butt" stroke-linejoin="round"/></g></g></svg>