<style>
  g {
    stroke-dasharray: 1000 1000;
    stroke-dashoffset: 1800;
    animation: appear 0.3s;
    animation-fill-mode: forwards;
  }
  
  @keyframes appear {
    0% {
      stroke-dashoffset: 1800;
    }
    100% {
      stroke-dashoffset: 2000;
    }
  }
</style>
<svg version="1.1" xmlns="http://www.w3.org/2000/svg" xmlns:xlink="http://www.w3.org/1999/xlink" width="299.32876" height="59" viewBox="0,0,299.32876,59"><g transform="translate(-90.33562,-150.5)"><g data-paper-data="{&quot;isPaintingLayer&quot;:true}" fill="none" fill-rule="nonzero" stroke="#333333" stroke-width="3" stroke-linecap="round" stroke-linejoin="round" stroke-miterlimit="10" style="mix-blend-mode: normal"><path d="M351.16438,189.0517c10.49341,0 19,-8.50659 19,-19v37h18"/><path d="M314.16438,170.0517h19c9.94113,0 18,8.50659 18,19h-37c0,9.94113 8.50659,18 19,18h18"/><path d="M277.16438,189.0517h37c0,9.94113 -8.05887,18 -18,18c-10.49341,0 -19,-8.05887 -19,-18c0,-10.49341 8.50659,-19 19,-19"/><path d="M239.83562,208v-37"/><path d="M239.83562,171h19c9.94113,0 18,8.05888 18,18h-37"/><path d="M202.83562,208h37"/><path d="M239.83562,189h-37"/><path d="M202.83562,171v37"/><path d="M202.83562,171h37"/><path d="M184.83562,171v37"/><path d="M165.83562,171h37"/><path d="M165.83562,171h-18c-10.49341,0 -19,8.05888 -19,18h37c0,10.49341 -8.05887,19 -18,19h-19"/><path d="M91.83562,171c10.49341,0 19,-8.50659 19,-19v56h18"/></g></g></svg>
