<svg version="1.1" xmlns="http://www.w3.org/2000/svg" xmlns:xlink="http://www.w3.org/1999/xlink" width="248.23695" height="248.23695" viewBox="0,0,248.23695,248.23695"><g transform="translate(-115.88153,-55.88153)"><g data-paper-data="{&quot;isPaintingLayer&quot;:true}" stroke-linecap="butt" stroke-miterlimit="10" stroke-dasharray="" stroke-dashoffset="0" style="mix-blend-mode: normal"><path d="M115.88153,180c0,-68.54874 55.56973,-124.11847 124.11848,-124.11847c68.54874,0 124.11847,55.56974 124.11847,124.11848c0,68.54874 -55.56973,124.11847 -124.11847,124.11847c-68.54874,0 -124.11847,-55.56973 -124.11847,-124.11847z" fill="#8daeb8" fill-rule="nonzero" stroke="none" stroke-width="0" stroke-linejoin="miter"/><path d="M146.70501,180.13738c0,-50.84243 41.21592,-92.05835 92.05835,-92.05835c50.84243,0 92.05835,41.21592 92.05835,92.05835c0,50.84243 -41.21592,92.05835 -92.05835,92.05835c-50.84243,0 -92.05835,-41.21592 -92.05835,-92.05835z" fill="#4e7682" fill-rule="nonzero" stroke="none" stroke-width="0" stroke-linejoin="miter"/><path d="M187.1008,180c0,-29.21542 23.68377,-52.8992 52.89921,-52.8992c29.21543,0 52.8992,23.68377 52.8992,52.8992c0,29.21543 -23.68377,52.89921 -52.8992,52.89921c-29.21542,0 -52.89921,-23.68377 -52.89921,-52.89921z" fill="#20444f" fill-rule="nonzero" stroke="none" stroke-width="0" stroke-linejoin="miter"/><path d="M324.56395,162.20824l-20.36545,0.55514v50.66809h12.78935c5.04956,0 7.57611,-2.59594 7.57611,-7.78428zM250.54302,161.65133v20.36367h19.87793v-20.36367zM249.36159,153.93644h22.24079c5.19011,0 7.78428,2.61907 7.78428,7.85367v24.32609l-3.12794,3.26673h-25.7157v24.46487h19.87793v-12.37121h8.96571v12.23244c0,5.23638 -2.59417,7.85367 -7.78428,7.85367h-22.24079c-5.19011,0 -7.78428,-2.6173 -7.78428,-7.85367v-51.9189c0,-5.23459 2.59417,-7.85367 7.78428,-7.85367zM326.09233,153.52009c5.14385,0 7.71489,2.52477 7.71489,7.57611v45.94059c0,4.17059 -1.36648,7.63304 -4.1012,10.3909c-2.73295,2.75608 -6.16159,4.13502 -10.28592,4.13502h-15.2216v25.64631h-9.24327v-93.27255h9.24327v1.87712c3.66173,-0.46261 7.32168,-0.927 10.98161,-1.38961c4.6332,-0.60318 8.2718,-0.90386 10.91222,-0.90386zM209.39755,132.87708h9.10449v21.05936h11.81609v8.13301h-11.81609v51.362h11.81609v8.13123h-13.1363c-5.18833,0 -7.78428,-2.6173 -7.78428,-7.85367v-51.63957h-8.13123v-8.13301h8.13123zM153.97705,112.79098h27.38286c2.27034,0 4.11366,0.71882 5.52639,2.15469c1.41273,1.43587 2.11911,3.28986 2.11911,5.5602v25.29934h-9.65962v-24.46487h-23.4934v22.93649l30.16564,36.27918c1.991,2.40912 2.98738,5.12073 2.98738,8.13123v25.16056c0,2.27034 -0.70637,4.12433 -2.11911,5.5602c-1.41273,1.43587 -3.25605,2.15469 -5.52639,2.15469h-27.38286c-2.27034,0 -4.13502,-0.71882 -5.59578,-2.15469c-1.459,-1.43587 -2.18849,-3.28986 -2.18849,-5.5602v-27.59281h9.65962v26.75834h23.4934v-25.92387l-30.02508,-36.28096c-2.0853,-2.50164 -3.12794,-5.25772 -3.12794,-8.27001v-22.03262c0,-2.27034 0.7295,-4.12433 2.18849,-5.5602c1.46078,-1.43587 3.32544,-2.15469 5.59578,-2.15469z" fill="#3e8297" fill-rule="evenodd" stroke="#ffffff" stroke-width="10" stroke-linejoin="round"/><g fill="#000000" fill-rule="nonzero" stroke="#ffffff" stroke-width="0" stroke-linejoin="miter"><path d="M153.97705,113.12432h27.38286c2.27034,0 4.11366,0.71882 5.52639,2.15469c1.41273,1.43587 2.11911,3.28986 2.11911,5.5602v25.29934h-9.65962v-24.46487h-23.4934v22.93649l28.52989,34.31192c-0.35892,-0.03644 -0.71783,-0.07288 -1.07675,-0.10932c-3.4821,-0.35354 -6.9642,-0.70709 -10.44629,-1.06063c-0.55191,-0.05604 -1.10382,-0.11207 -1.65572,-0.16811l-21.88279,-26.44219c-2.0853,-2.50164 -3.12794,-5.25772 -3.12794,-8.27001v-22.03262c0,-2.27034 0.7295,-4.12433 2.18849,-5.5602c1.46078,-1.43587 3.32544,-2.15469 5.59578,-2.15469z"/><path d="M249.36159,154.26978h22.24079c5.19011,0 7.78428,2.61907 7.78428,7.85367v22.81278c-0.59835,-0.03446 -1.19671,-0.06892 -1.79506,-0.10338c-3.49421,-0.20124 -6.98842,-0.40248 -10.48263,-0.60372c-3.49421,-0.20124 -6.98842,-0.40248 -10.48263,-0.60372c-3.49421,-0.20124 -6.98842,-0.40248 -10.48263,-0.60372c-1.52213,-0.08766 -3.04427,-0.17533 -4.5664,-0.26299v-20.63522c0,-5.23459 2.59417,-7.85367 7.78428,-7.85367zM250.54302,161.98467v20.36367h19.87793v-20.36367z"/><path d="M304.1985,213.09814h12.78935c5.04956,0 7.57611,-2.59594 7.57611,-7.78428v-17.94159c1.80401,0.1039 3.60803,0.2078 5.41204,0.31169c1.27884,0.07365 2.55522,0.13818 3.83122,0.19257v18.82693c0,4.17059 -1.36648,7.63304 -4.1012,10.3909c-2.73295,2.75608 -6.16159,4.13502 -10.28592,4.13502h-15.2216v25.64631h-9.24327v-61.20867c1.19096,0.06859 2.38192,0.13718 3.57288,0.20577c1.89013,0.10886 3.78026,0.21771 5.67039,0.32657z"/><path d="M218.50204,213.09812h11.81609v8.13123h-13.1363c-5.18833,0 -7.78428,-2.6173 -7.78428,-7.85367v-32.63614c1.75651,0.10116 3.51302,0.20232 5.26953,0.30349c1.27832,0.07362 2.55664,0.14724 3.83496,0.22087z"/></g><g fill="#2f6272" fill-rule="nonzero" stroke="#ffffff" stroke-width="0" stroke-linejoin="miter"><path d="M186.01803,180.22268c1.991,2.40912 2.98738,5.12073 2.98738,8.13123v25.16056c0,2.27034 -0.70637,4.12433 -2.11911,5.5602c-1.41273,1.43587 -3.25605,2.15469 -5.52639,2.15469h-27.38286c-2.27034,0 -4.13502,-0.71882 -5.59578,-2.15469c-1.459,-1.43587 -2.18849,-3.28986 -2.18849,-5.5602v-27.59281h9.65962v26.75834h23.4934v-25.92387l-7.68822,-9.2901c0.38372,0.03896 0.76743,0.07792 1.15115,0.11688c3.4821,0.35354 6.9642,0.70709 10.44629,1.06063c0.52789,0.0536 1.05578,0.10719 1.58367,0.16079z"/><path d="M279.38666,185.78287l-3.12794,3.26673h-25.7157v24.46487h19.87793v-12.37121h8.96571v12.23244c0,5.23638 -2.59417,7.85367 -7.78428,7.85367h-22.24079c-5.19011,0 -7.78428,-2.6173 -7.78428,-7.85367v-30.78285c1.51255,0.08711 3.0251,0.17422 4.53765,0.26134c3.49421,0.20124 6.98842,0.40248 10.48263,0.60372c3.49421,0.20124 6.98842,0.40248 10.48263,0.60372c3.49421,0.20124 6.98842,0.40248 10.48263,0.60372c0.60794,0.03501 1.21587,0.07003 1.82381,0.10504z"/><path d="M324.56395,162.54158l-20.36545,0.55514v23.26849c-1.88055,-0.10831 -3.76109,-0.21661 -5.64164,-0.32492c-1.20054,-0.06914 -2.40109,-0.13828 -3.60163,-0.20743v-31.56306h9.24327v1.87712c3.66173,-0.46261 7.32168,-0.927 10.98161,-1.38961c4.6332,-0.60318 8.2718,-0.90386 10.91222,-0.90386v-0.00003c5.14385,0 7.71489,2.52477 7.71489,7.57611v26.61321c-1.26641,-0.05409 -2.53322,-0.11819 -3.80247,-0.19129c-1.8136,-0.10445 -3.6272,-0.2089 -5.44079,-0.31335z"/><path d="M209.39755,133.21042h9.10449v21.05936h11.81609v8.13301h-11.81609v19.02694c-1.26874,-0.07307 -2.53748,-0.14614 -3.80622,-0.21921c-1.76609,-0.10171 -3.53218,-0.20343 -5.29827,-0.30514v-18.5026h-8.13123v-8.13301h8.13123z"/></g></g></g></svg>