<svg version="1.1" xmlns="http://www.w3.org/2000/svg" xmlns:xlink="http://www.w3.org/1999/xlink" width="364.17179" height="171.8526" viewBox="0,0,364.17179,171.8526"><g transform="translate(-58.12455,-94.10327)"><g data-paper-data="{&quot;isPaintingLayer&quot;:true}" stroke="#000000" stroke-linecap="butt" stroke-miterlimit="10" stroke-dasharray="" stroke-dashoffset="0" style="mix-blend-mode: normal"><path d="M119.01935,103.43421h11.24407c0.42549,0.48554 0.89724,0.92953 1.40835,1.3251l-0.32619,5.54526c0,1.54866 -0.01697,2.77805 -0.05011,3.68736c-0.03395,0.90931 0.05011,1.54947 0.25218,1.91966c0.20207,0.37019 0.45425,0.57226 0.75816,0.60621c0.3023,0.03395 0.82444,-0.05011 1.56563,-0.25218c0.74119,-0.26996 2.02069,-0.40414 3.83932,-0.40414c1.81862,0 3.6033,0.13417 5.35484,0.40414l6.36518,1.01035v16.67072h-6.46622c-0.6733,0 -1.38054,0.03314 -2.12173,0.10103c-0.74119,0.06709 -1.43146,0.15115 -2.07081,0.25218c-0.64016,0.10103 -1.22939,0.23602 -1.76851,0.40414c-0.53912,0.16812 -1.01035,0.33705 -1.41449,0.50517c-0.40414,0.16812 -0.70724,0.35403 -0.90931,0.55609c-0.53912,0.53831 -1.09441,1.83479 -1.66748,3.88943c-0.57226,2.05464 -0.99337,4.26043 -1.26253,6.61818l-1.01035,8.68898l5.96105,-1.51552c3.50227,-0.87617 5.82606,-0.89315 6.97139,-0.05092c1.14533,0.84223 1.98675,3.25008 2.52587,7.22438l0.80828,5.75898l-7.17346,1.01035l-7.17346,0.90931l-0.90931,9.39623c-0.60621,6.26415 -1.01035,10.10347 -1.21242,11.51795c-0.33705,2.49192 -5.89396,3.83932 -16.67072,4.04139l-7.98174,0.20207l-0.90931,-5.35484c-0.53912,-3.50307 -0.82525,-6.92128 -0.8592,-10.25542c-0.03314,-3.33414 -0.69027,-7.45959 -1.96977,-12.37634c-0.40414,-1.61655 -0.69027,-2.84594 -0.8592,-3.68817c-0.16812,-0.84223 -0.21823,-1.68364 -0.15115,-2.52587c0.06709,-0.84223 0.20207,-1.4646 0.40414,-1.86874c0.20207,-0.40414 0.6733,-0.84223 1.41449,-1.31345c0.74119,-0.47203 1.54947,-0.84223 2.42483,-1.11138c0.87536,-0.26996 2.12173,-0.60621 3.73828,-1.01035l5.75898,-1.51552l0.10103,-7.98174l0.10103,-7.88071l-10.40657,1.01035l-10.50761,0.90931v-4.04139c0,-1.14533 -0.21904,-2.42483 -0.65632,-3.83932c-0.43809,-1.41449 -0.96023,-2.55981 -1.56644,-3.43518c-0.06709,-0.13498 -0.16812,-0.3031 -0.3031,-0.50517c-0.87536,-1.28031 -1.11138,-2.15568 -0.70724,-2.6269c0.60621,-0.60621 4.47947,-1.68445 11.61899,-3.23311h0.3031l0.10103,-0.10103h0.40414l0.10103,-0.10103h0.3031l0.10103,-0.10103h0.40414l0.10103,-0.10103h0.10103c3.03104,-0.6741 5.79292,-1.1623 8.28484,-1.46541c2.49192,-0.3031 4.00744,-0.35322 4.54656,-0.15115c0.06709,0 0.16812,0 0.3031,0c0.94326,0 1.41449,-2.45878 1.41449,-7.37553z" fill="#3c8085" fill-rule="nonzero" stroke-width="0.75" stroke-linejoin="miter"/><path d="M172.56774,103.43421c2.6269,0 4.14242,0.37019 4.54656,1.11138c0.13498,0.26916 0.16812,1.7677 0.10103,4.49564c-0.06709,2.72794 -0.20207,5.84304 -0.40414,9.34611c-0.60621,8.48691 -0.74119,14.00987 -0.40414,16.56969l0.60621,3.94035l20.1059,-0.90931l20.20694,-0.90931l0.90931,4.6476c0.60621,3.09813 0.90931,9.12626 0.90931,18.08521c0,2.89606 0.03395,5.15277 0.10103,6.76932c0.06709,1.61655 0.1851,2.91303 0.35403,3.88943c0.16812,0.9764 0.37019,1.58261 0.60621,1.81862c0.23521,0.23602 0.58923,0.28613 1.06046,0.15196c1.61655,-0.60621 3.53621,-1.21242 5.75898,-1.81862c2.22276,-0.60621 4.19254,-1.04429 5.91093,-1.31345c1.71678,-0.26996 2.67701,-0.3031 2.87908,-0.10103c0.53912,0.53831 0.37019,2.82897 -0.50517,6.87036c-0.33705,1.54866 -0.70724,2.72794 -1.11138,3.53621c-0.40414,0.80828 -0.96023,1.54866 -1.66667,2.22276c-0.70805,0.6733 -1.86955,1.12755 -3.4861,1.36356c-1.61655,0.23602 -3.41821,0.42111 -5.40495,0.55609c-1.98755,0.13417 -4.8335,0.23521 -8.53783,0.3031l-10.50761,0.20207l0.90931,-11.01278c0.60621,-7.2745 1.21242,-13.47156 1.81862,-18.59038c0.40414,-3.43518 0.53912,-5.52377 0.40414,-6.26415c-0.13498,-0.74119 -0.84223,-0.94326 -2.12173,-0.60621c-1.81862,0.53831 -5.96105,1.11138 -12.42727,1.71759l-9.69933,1.01035l0.50517,15.05417l0.50517,15.1552l-8.99209,1.21242c-2.42483,0.33624 -4.69852,0.53831 -6.81944,0.60621c-2.12254,0.06709 -3.45215,0 -3.99127,-0.20207c-3.23311,-1.21242 -3.94035,-16.73862 -2.12173,-46.57699c0.40414,-7.14032 0.70724,-12.2252 0.90931,-15.25624c0.74119,-8.55481 1.81862,-13.67363 3.23311,-15.35727c0.94326,-1.14533 2.89606,-1.71759 5.86001,-1.71759z" fill="#fff7f5" fill-rule="nonzero" stroke-width="0.75" stroke-linejoin="miter"/><path d="M81.83858,113.73975c0.20207,-0.0679 0.37019,1.11138 0.50517,3.53621c0.13498,2.42483 0.21904,5.84304 0.25299,10.25462c0.03314,4.41158 0.01617,9.61527 -0.05092,15.61026l-0.40414,31.21972l8.18381,-0.50517l8.08277,-0.50517l-0.90931,6.87036c-0.53912,4.5797 -1.21242,7.30764 -2.02069,8.18381c-0.13498,0.13417 -0.4882,0.28613 -1.06127,0.45425c-0.57226,0.16812 -1.29648,0.32008 -2.17184,0.45506c-0.87536,0.13417 -1.86955,0.26916 -2.98012,0.40414c-1.11219,0.13417 -2.34077,0.25218 -3.68817,0.35322c-1.3474,0.10103 -2.69399,0.1851 -4.04139,0.25299l-12.62934,0.60621l-1.51552,-5.45587c-0.94326,-3.63725 -2.15568,-12.31007 -3.63725,-26.01683c-1.48157,-13.70677 -2.89606,-23.08602 -4.24346,-28.13775c-0.47123,-1.81862 -0.80828,-3.33414 -1.01035,-4.54656c-0.20207,-1.21242 -0.33705,-2.34077 -0.40414,-3.38507c-0.06709,-1.04429 0.06709,-1.90269 0.40414,-2.57598c0.33705,-0.6741 0.75736,-1.26334 1.26334,-1.76851c0.50437,-0.50517 1.2795,-0.90931 2.32299,-1.21242c1.04429,-0.3031 2.18962,-0.55529 3.43518,-0.75736c1.24636,-0.20207 2.81281,-0.40414 4.69852,-0.60621c2.96395,-0.20207 5.53993,-0.55609 7.72956,-1.06127c2.18882,-0.50517 3.45134,-1.02732 3.7884,-1.56563c0,-0.0679 0.03395,-0.10103 0.10103,-0.10103z" fill="#3c8085" fill-rule="nonzero" stroke-width="0.75" stroke-linejoin="miter"/><path d="M265.31757,129.9053l12.2252,0.90931c8.14986,0.60621 14.11091,0.9764 17.88314,1.11138c3.9064,0.20207 10.70968,1.09441 20.40901,2.67701c9.69933,1.58261 14.8521,2.64388 15.45831,3.183c0.60621,0.6733 0.64016,4.9507 0.10103,12.8314l-0.80828,11.82106l-8.79002,0.40414c-2.42483,0.06709 -4.9507,0.23521 -7.5776,0.50517c-2.6269,0.26916 -4.58051,0.57226 -5.86001,0.90931l-4.54656,1.01035l0.3031,-7.07243l0.20207,-6.97139l-18.08521,-0.50517c-3.23311,-0.13498 -6.2981,-0.28694 -9.19416,-0.45506c-2.89606,-0.16812 -5.27078,-0.35322 -7.12254,-0.55529c-1.85257,-0.20207 -2.91384,-0.371 -3.183,-0.50517c-0.94326,-0.60621 -1.41449,-3.9743 -1.41449,-10.10347z" fill="#59b4fb" fill-rule="nonzero" stroke-width="0.75" stroke-linejoin="miter"/><path d="M381.91161,119.09459c0.53912,0 1.11138,0.03314 1.71759,0.10103c3.57016,0.20207 7.45959,0.82444 11.6691,1.86874c4.21032,1.04429 8.06661,2.34077 11.56888,3.89024l7.37553,3.43518l-0.40414,8.38588c-0.40414,5.79212 -1.2795,12.84757 -2.6269,21.16636c-1.3474,8.31879 -2.35775,12.7134 -3.03104,13.18543c-0.74119,0.60621 -3.6033,0.77433 -8.58795,0.50517c-2.02069,-0.13498 -3.77223,-0.38797 -5.2538,-0.75816c-1.48157,-0.37019 -2.22276,-0.75736 -2.22276,-1.16149c0,-0.20207 -0.03395,-0.371 -0.10103,-0.50517c-0.06709,-0.13498 -0.15196,-0.21904 -0.25218,-0.25299c-0.10184,-0.03395 -0.23602,-0.03395 -0.40414,0c-0.16893,0.03395 -0.35403,0.08406 -0.55609,0.15196c-0.6733,0.20207 -0.70724,-0.94326 -0.10103,-3.43518c0.60621,-2.02069 1.06127,-5.08568 1.36356,-9.19416c0.30391,-4.10928 0.38797,-8.18381 0.25299,-12.2252c-0.06709,-1.68445 -0.45506,-2.77886 -1.16149,-3.28403c-0.70805,-0.50517 -2.37472,-0.95943 -5.00162,-1.36356c-4.04139,-0.60621 -8.52086,-1.44843 -13.43761,-2.52587c-1.81862,-0.40414 -3.23311,-0.80828 -4.24346,-1.21242c-1.01035,-0.40414 -1.81862,-0.8592 -2.42483,-1.36437c-0.60621,-0.50517 -0.84223,-1.17847 -0.70724,-2.02069c0.13498,-0.84223 0.45425,-1.78468 0.96023,-2.82897c0.50437,-1.04429 1.32962,-2.37391 2.47495,-3.99047c1.3474,-1.95361 2.66085,-3.38507 3.94035,-4.29438c1.2795,-0.90931 2.89606,-1.56563 4.84966,-1.96977c0.26916,0 0.58923,-0.03395 0.95943,-0.10103c0.371,-0.0679 0.74119,-0.10103 1.11219,-0.10103c0.37019,0 0.74038,-0.01697 1.11057,-0.05092c0.371,-0.03395 0.75816,-0.05011 1.1623,-0.05011z" fill="#6199c2" fill-rule="nonzero" stroke-width="0.75" stroke-linejoin="miter"/><path d="M270.87449,177.49264c0.13498,0 0.26916,0.03314 0.40414,0.10103c0.13498,0.06709 0.75736,0.16812 1.86955,0.3031c1.11057,0.13417 2.59295,0.25218 4.44553,0.35322c1.85176,0.10103 3.97349,0.20207 6.36438,0.3031c2.39169,0.10103 5.05173,0.20207 7.98255,0.3031c2.9292,0.10103 5.91012,0.21904 8.94117,0.35403c18.79245,0.40414 28.55887,1.01035 29.30006,1.81862c0.60621,0.60621 0.60621,2.45797 0,5.55691c-0.60621,3.09813 -1.49855,6.04511 -2.67701,8.84013c-1.17928,2.79502 -2.1387,4.09231 -2.87989,3.89024c-0.13498,0 -0.62318,-0.05092 -1.46541,-0.15196c-0.84142,-0.10103 -1.90269,-0.21904 -3.18219,-0.35322c-1.2795,-0.13498 -2.66085,-0.26996 -4.14242,-0.40414c-5.2538,-0.53912 -13.23554,-0.62318 -23.94522,-0.25299c-10.70968,0.37019 -17.04091,0.28613 -18.99452,-0.25218c-1.48157,-0.33705 -2.35775,-0.97721 -2.6269,-1.91966c-0.26916,-0.94326 -0.40414,-3.9743 -0.40414,-9.09312c0,-6.26415 0.33705,-9.39623 1.01035,-9.39623z" fill="#59b4fb" fill-rule="nonzero" stroke-width="0.75" stroke-linejoin="miter"/><path d="M379.18366,94.54316l6.16312,0.90931c4.04139,0.60621 11.14776,2.12173 21.31832,4.54656c2.55981,0.60621 4.58051,1.09441 6.06208,1.4646c1.48157,0.37019 2.86292,0.75816 4.14242,1.1623c1.2795,0.40414 2.18882,0.74038 2.72794,1.01035c0.53912,0.26916 1.02732,0.58923 1.46541,0.95943c0.43728,0.37019 0.69027,0.72422 0.75736,1.06127c0.06709,0.33624 0.10103,0.80828 0.10103,1.41449c0,1.14452 -0.1851,1.90269 -0.55609,2.27288c-0.37019,0.37019 -1.09441,0.62318 -2.17184,0.75816c-1.07743,0.13417 -3.13208,0.16812 -6.16312,0.10103c-5.86001,-0.13498 -12.8314,-0.74119 -20.91418,-1.81862l-12.02313,-1.51552l-0.40414,-6.16312z" fill="#6199c2" fill-rule="nonzero" stroke-width="0.75" stroke-linejoin="miter"/><path d="M341.59876,117.57907c0.53912,0 2.59295,3.06418 6.16312,9.19416c3.57016,6.12917 5.35484,9.69933 5.35484,10.70968c0,0.40414 -1.6505,1.39751 -4.9507,2.98012c-3.3002,1.58261 -5.45587,2.37472 -6.46622,2.37472c-0.33705,0.06709 -1.11138,-0.97721 -2.3238,-3.13208l-5.55691,-17.07486c0.87536,-0.6741 1.91966,-1.28031 3.13208,-1.81862c1.07743,-0.47203 2.07162,-1.01035 2.98012,-1.61655c0.91012,-0.60621 1.43146,-1.11138 1.56644,-1.51552z" fill="#59b4fb" fill-rule="nonzero" stroke-width="0.75" stroke-linejoin="miter"/><path d="M357.86535,105.65698c0.06709,0 0.16812,0 0.3031,0l0.60621,0.10103c0.40414,0.13417 0.69027,0.31927 0.8592,0.55529c0.16812,0.23602 0.1851,0.55609 0.05011,0.96023c-0.13498,0.13417 -0.08406,0.63935 0.15196,1.51552c0.23521,0.87536 0.58923,1.96977 1.06046,3.28322c0.47123,1.31345 1.04429,2.71096 1.71759,4.19334c2.42483,5.2538 3.63725,8.04883 3.63725,8.38588c0,0.20207 -0.45506,0.50517 -1.36356,0.90931c-0.91012,0.40414 -2.05464,0.84142 -3.43518,1.31345c-1.38135,0.47123 -2.67782,0.87536 -3.89024,1.21242c-1.21242,0.26916 -2.12173,-0.01697 -2.72794,-0.8592c-0.60621,-0.84223 -1.58261,-3.18219 -2.93001,-7.02151l-2.93001,-8.48691l2.93001,-2.22276c0.80828,-0.6741 1.63353,-1.33042 2.47575,-1.97058c0.84142,-0.64016 1.43065,-1.09441 1.7677,-1.36356c0.20207,-0.13498 0.45506,-0.25299 0.75736,-0.35403c0.30391,-0.10103 0.62318,-0.15115 0.96023,-0.15115z" fill="#59b4fb" fill-rule="nonzero" stroke-width="0.75" stroke-linejoin="miter"/><path d="M267.75534,209.94983c0.12609,-0.04203 0.2732,-0.04203 0.44132,0c0.1269,0 0.25299,0.02102 0.37908,0.06305c1.59958,0.37908 3.09409,1.41044 4.48352,3.09409c1.55755,1.8946 4.26286,6.06208 8.1143,12.50324c3.85225,6.44116 7.31491,12.56629 10.38798,18.37538l4.54656,8.71485l0.56822,-11.36681c0.42111,-7.5776 0.9473,-13.21857 1.57857,-16.92291l0.9473,-5.62076l4.98869,0.25299l4.98869,0.31604l-0.06305,17.23894c0,5.47204 -0.10588,10.12448 -0.31604,13.95491c-0.21096,3.83124 -0.50517,6.48319 -0.88426,7.95668l-1.13644,4.67265h-4.29438c-1.85176,0 -4.71468,-0.35726 -8.58795,-1.07339c-3.87246,-0.71533 -6.67233,-1.41044 -8.398,-2.08374c-0.33705,-0.12609 -0.92629,-0.78969 -1.76851,-1.98917c-0.84142,-1.19948 -1.68364,-2.59942 -2.52587,-4.199c-1.93663,-3.66231 -3.15713,-5.51488 -3.66231,-5.55691c-0.29502,0 -0.44213,0.61025 -0.44213,1.83075c0.04203,1.3474 0,3.85225 -0.12609,7.51456c-0.04203,2.73683 -0.17863,4.34692 -0.4106,4.83107c-0.23117,0.48416 -0.93679,0.72583 -2.11526,0.72583c-0.6733,0 -1.51552,-0.15761 -2.52587,-0.47365c-1.01035,-0.31523 -1.87359,-0.70482 -2.58891,-1.16796c-1.22131,-0.71533 -1.97866,-1.19948 -2.27368,-1.45247c-1.13644,-0.92629 -1.78872,-2.46282 -1.95765,-4.60961c-0.21015,-2.10475 0.02102,-9.15617 0.69512,-21.15424c0.84142,-15.28129 1.28354,-23.15392 1.32558,-23.61706c0,-0.16812 0.02102,-0.30472 0.06305,-0.4098c0.04284,-0.10588 0.11639,-0.18995 0.22147,-0.25299c0.10508,-0.06305 0.22066,-0.09457 0.34756,-0.09457zM343.34142,209.88678c1.55755,0 4.33641,0.02102 8.33577,0.06305c2.02069,0.04203 3.57824,0.06305 4.67265,0.06305l24.24832,0.18914l0.75736,7.13628c0.54801,4.75671 0.61106,7.34563 0.18995,7.76674c-0.21096,0.16812 -0.9473,0.35807 -2.21064,0.56822c-1.26253,0.21015 -2.715,0.37908 -4.35662,0.50517l-5.93599,0.44213l-0.44213,17.74411c-0.29421,11.78711 -0.6733,18.06015 -1.13644,18.81751c-0.12609,0.21096 -0.35807,0.4001 -0.69431,0.56822c-0.33705,0.16893 -0.71613,0.29502 -1.13725,0.37908c-0.4203,0.08406 -0.86243,0.12609 -1.32558,0.12609c-1.59958,0 -2.73683,0.33705 -3.41012,1.01035c-0.12609,0.1269 -0.23117,0.18995 -0.31604,0.18995c-0.46314,0.04203 -0.88345,-1.26334 -1.26253,-3.9153c-0.42111,-3.15713 -0.52619,-9.76642 -0.31604,-19.82785l0.31604,-15.09216l-4.42047,0.25218c-2.94698,0.1269 -7.61963,0.52619 -14.01876,1.20029c-4.04139,0.42111 -6.70385,0.62076 -7.9874,0.59974c-1.28435,-0.02102 -2.09506,-0.28451 -2.4313,-0.78969c-0.50517,-0.84142 -0.77918,-3.49418 -0.82121,-7.95587c0,-0.37908 0,-0.9473 0,-1.70547c0.04203,-0.84142 0.04203,-1.59958 0,-2.27288c-0.04203,-0.6741 0,-1.27385 0.12609,-1.80003c0.1269,-0.52619 0.25299,-0.98933 0.37908,-1.38943c0.12609,-0.39929 0.37908,-0.75736 0.75816,-1.07339c0.37827,-0.31523 0.79939,-0.57873 1.26253,-0.78888c0.46314,-0.21096 1.09441,-0.37908 1.8946,-0.50517c0.79939,-0.12609 1.68364,-0.22147 2.65196,-0.28451c0.96832,-0.06305 2.12577,-0.11558 3.47317,-0.15761c0.92629,-0.04203 1.97866,-0.06305 3.15713,-0.06305zM220.77422,209.88678c1.68364,0.04203 3.50469,0.37908 5.46153,1.01035c1.95765,0.63126 3.85225,1.47349 5.68381,2.52587c1.83075,1.05238 3.54672,2.24135 5.1463,3.56774c1.59958,1.32558 2.96799,2.75703 4.10443,4.29357c1.13644,1.53654 1.91562,3.04155 2.33673,4.51504c0.84142,2.65277 1.2205,5.49386 1.13644,8.5249c-0.08406,3.03104 -0.47365,5.92548 -1.16796,8.68252c-0.69512,2.75784 -1.758,5.28371 -3.18946,7.5776c-1.43146,2.2947 -3.05206,4.03088 -4.86179,5.21016c-0.84223,0.5472 -3.56774,1.3571 -8.17815,2.43049c-4.60961,1.0742 -7.52425,1.56887 -8.74556,1.484c-0.08406,0 -0.18914,-0.01051 -0.31523,-0.03152c-0.1269,-0.02102 -0.28451,-0.05254 -0.47365,-0.09457c-0.18995,-0.04203 -0.38959,-0.09457 -0.60055,-0.15761c-0.21015,-0.06305 -0.44213,-0.12609 -0.69431,-0.18995c-0.25218,-0.06305 -0.51568,-0.1366 -0.78969,-0.22066c-0.2732,-0.08406 -0.55771,-0.16812 -0.85192,-0.25218c-0.29502,-0.08487 -0.58923,-0.16893 -0.88426,-0.25299c-2.65196,-0.84223 -5.05173,-1.97866 -7.19852,-3.41012c-2.14759,-1.43146 -3.70514,-2.94698 -4.67265,-4.54656c-1.05319,-1.68364 -1.6214,-4.96767 -1.70547,-9.85048c-0.08406,-4.88361 0.35807,-9.11414 1.32638,-12.69238c0.96832,-3.62108 2.41028,-6.80974 4.32509,-9.56677c1.91562,-2.75784 4.15778,-4.88361 6.72568,-6.37812c2.5679,-1.49451 5.26189,-2.22034 8.08277,-2.17831zM180.42339,209.88678l-0.56822,3.47317c0,0.08406 -0.02102,0.21015 -0.06305,0.37827c-0.16893,1.09522 -0.28451,1.87359 -0.34756,2.33673c-0.06305,0.46314 -0.25299,1.03136 -0.56822,1.70466c-0.31604,0.6741 -0.52619,1.10572 -0.63207,1.29486c-0.10508,0.18914 -0.48416,0.45264 -1.13644,0.78969c-0.65228,0.33624 -1.15745,0.52619 -1.51552,0.56822c-0.35807,0.04203 -1.15745,0.11558 -2.39978,0.22066c-1.24151,0.10508 -2.28338,0.15761 -3.12561,0.15761c-0.84142,0 -2.25186,0 -4.23052,0c-0.33705,0 -0.56822,0 -0.69512,0c-1.51471,0 -2.76754,0 -3.75687,0c-0.98933,0 -1.93663,0.03152 -2.8419,0.09538c-0.90446,0.06305 -1.6311,0.11558 -2.17831,0.15761c-0.5472,0.04203 -1.05238,0.1366 -1.51552,0.28371c-0.46314,0.14791 -0.80989,0.28451 -1.04187,0.4106c-0.23117,0.1269 -0.43162,0.31604 -0.59974,0.56822c-0.16812,0.25299 -0.2635,0.51568 -0.28451,0.78969c-0.02102,0.2732 -0.03152,0.59974 -0.03152,0.97882v2.27288l7.76755,-0.63126c1.38862,-0.08406 2.74653,-0.14711 4.07291,-0.18914c1.32558,-0.04203 2.45231,-0.05254 3.37779,-0.03152c0.92629,0.02102 1.53654,0.09457 1.83156,0.22066c0.84223,0.33705 1.33689,1.27385 1.484,2.81038c0.14711,1.53654 -0.11558,3.18865 -0.78969,4.95717c-0.08406,0.25218 -0.16812,0.45183 -0.25218,0.59974c-0.08406,0.14711 -0.17863,0.31523 -0.28451,0.50517c-0.10508,0.18914 -0.26269,0.32574 -0.47365,0.4106c-0.21015,0.08406 -0.4098,0.17863 -0.59974,0.28371c-0.18914,0.10508 -0.49467,0.17863 -0.91578,0.22147c-0.4203,0.04203 -0.8204,0.09457 -1.19948,0.15761c-0.37908,0.06305 -0.92629,0.10508 -1.64161,0.12609c-0.71613,0.02102 -1.41044,0.05254 -2.08374,0.09457c-0.6741,0.04203 -1.55755,0.08406 -2.65277,0.1269c-3.83043,0.12609 -6.52522,0.31523 -8.08277,0.56822c-2.31491,0.4203 -2.75703,1.07339 -1.32558,1.95765l0.25218,0.18914c0.5472,0.42111 0.58923,0.63126 0.1269,0.63126c-0.25299,0 -0.46314,0.84223 -0.63207,2.52587c-0.16812,1.68364 -0.25218,3.87327 -0.25218,6.56725c0,0.16812 0,0.33705 0,0.50517c0,0.16812 0,0.30553 0,0.4106c0,0.10508 0,0.24167 0,0.4106c0.04203,1.09441 0.06305,1.88329 0.06305,2.36744c0,0.48416 -0.03152,1.09522 -0.09457,1.83156c-0.06305,0.73715 -0.10588,1.23181 -0.1269,1.484c-0.02102,0.25299 -0.1366,0.58923 -0.34675,1.01035c-0.21096,0.42111 -0.35807,0.6733 -0.44213,0.75816c-0.08406,0.08406 -0.33705,0.19964 -0.75816,0.34675c-0.4203,0.14711 -0.75736,0.21096 -1.01035,0.18995c-0.25218,-0.02102 -0.72583,-0.06385 -1.42014,-0.1269c-0.69512,-0.06305 -1.26334,-0.1366 -1.70547,-0.22066c-0.44213,-0.08406 -1.16796,-0.21096 -2.17831,-0.37908c-0.5472,-0.08406 -0.96832,-0.16812 -1.26334,-0.25218l-5.74604,-1.01035l0.18914,-22.03849c0.1269,-14.69206 0.27401,-22.12255 0.44213,-22.29068c0.25299,-0.16812 7.66166,-0.48416 22.22763,-0.9473z" fill="#0f1419" fill-rule="evenodd" stroke-width="1" stroke-linejoin="round"/></g></g></svg>